<svg width="694" height="182" viewBox="0 0 694 182" fill="none" xmlns="http://www.w3.org/2000/svg">
  <path fill-rule="evenodd" clip-rule="evenodd" d="M11.9757 136.089C11.9634 134.704 11.9462 132.773 11.9384 130.947L11.9392 130.947L39.9659 133.649L40.9306 147.481C41.0469 149.148 42.3728 150.475 44.0398 150.595L77.2404 152.964C78.9901 153.092 80.5433 151.842 80.799 150.104L82.7028 137.193H109.792L111.696 150.104C111.94 151.761 113.363 152.972 115.013 152.972C115.093 152.972 115.174 152.97 115.255 152.964L148.455 150.595C150.122 150.475 151.448 149.148 151.565 147.481L152.53 133.649L180.546 130.947C180.537 132.764 180.519 134.68 180.506 136.062L180.506 136.068L180.506 136.071C180.498 136.976 180.491 137.651 180.491 137.916C180.491 167.515 142.954 181.742 96.3035 181.906H96.1887C49.5383 181.742 11.9897 167.515 11.9897 137.916C11.9897 137.657 11.9837 136.988 11.9757 136.089ZM51.1458 9.6306C59.279 5.53692 67.9542 2.82337 76.7235 0.873829C80.2317 6.76136 83.4328 13.1363 86.221 19.3688C89.53 18.8159 92.9359 18.5714 96.2405 18.5714C99.545 18.5714 102.965 18.8159 106.274 19.3688C109.063 13.1358 112.267 6.76117 115.77 0.873646C124.544 2.82302 133.218 5.53673 141.352 9.63044C141.165 16.8118 140.7 23.6929 139.762 30.6825C140.747 31.3149 141.749 31.9193 142.751 32.5237L142.751 32.5238C144.956 33.8533 147.16 35.183 149.188 36.8115C149.661 37.175 150.135 37.536 150.61 37.8969C153.144 39.8255 155.673 41.7496 157.959 44.0215C163.381 40.4345 169.122 37.0641 175.033 34.089C181.406 40.9473 187.368 48.3502 192.234 56.6342C188.57 62.5583 184.749 68.1116 180.62 73.3815H180.505V120.161L180.492 120.165V124.223C180.399 124.223 180.306 124.227 180.214 124.236L149.058 127.24C147.426 127.399 146.147 128.712 146.033 130.348L145.072 144.107L117.883 146.048L116.011 133.349C115.768 131.702 114.355 130.483 112.691 130.483H79.8073C78.1419 130.483 76.7289 131.702 76.4861 133.349L74.6136 146.048L47.4257 144.107L46.4644 130.348C46.3507 128.712 45.0714 127.398 43.4388 127.24L12.2704 124.236C12.1783 124.228 12.0846 124.223 11.9916 124.223V73.3817H11.8767C7.74845 68.112 3.92495 62.559 0.262695 56.6344C5.13043 48.351 11.0899 40.948 17.4628 34.0892C23.3749 37.0647 29.1132 40.4352 34.5356 44.0217C36.8044 41.767 39.3164 39.8549 41.8306 37.941L41.8308 37.9408C42.324 37.5654 42.8173 37.1899 43.3089 36.8117C45.3447 35.1773 47.5562 33.8438 49.7693 32.5092L49.7703 32.5086C50.7642 31.9093 51.7584 31.3097 52.7372 30.6826C51.796 23.6931 51.3318 16.812 51.1458 9.6306ZM33.2834 94.0197C33.2834 83.6488 41.6947 75.246 52.064 75.246C62.4384 75.246 70.8474 83.6488 70.8474 94.0197C70.8474 104.398 62.4384 112.804 52.064 112.804C41.6941 112.804 33.2834 104.398 33.2834 94.0197ZM121.647 94.0197C121.647 83.6488 130.055 75.246 140.431 75.246C150.8 75.246 159.21 83.6488 159.21 94.0197C159.21 104.398 150.8 112.804 140.431 112.804C130.055 112.804 121.647 104.398 121.647 94.0197ZM90.1979 91.7266C90.1979 88.6956 92.9042 86.2319 96.2436 86.2319C99.5832 86.2319 102.296 88.6956 102.296 91.7266V109.018C102.296 112.052 99.583 114.513 96.2436 114.513C92.9042 114.513 90.1979 112.052 90.1979 109.018V91.7266Z" fill="white"/>
  <path d="M51.9539 81.8998C45.0683 81.8998 39.4868 87.4843 39.4868 94.368C39.4868 101.252 45.0685 106.831 51.9539 106.831C58.843 106.831 64.4222 101.252 64.4222 94.368C64.4222 87.4845 58.8428 81.8998 51.9539 81.8998ZM140.071 81.8998C133.187 81.8998 127.61 87.4843 127.61 94.368C127.61 101.252 133.188 106.831 140.071 106.831C146.962 106.831 152.538 101.252 152.538 94.368C152.538 87.4845 146.962 81.8998 140.071 81.8998Z" fill="white"/>
  <path d="M267.118 156.71C258.796 156.71 251.5 155.171 245.23 152.093C238.96 148.901 234.058 144.512 230.524 138.926C227.104 133.226 225.394 126.614 225.394 119.09V66.08C225.394 58.442 227.104 51.83 230.524 46.244C234.058 40.658 238.96 36.326 245.23 33.248C251.5 30.056 258.796 28.46 267.118 28.46C275.554 28.46 282.85 30.056 289.006 33.248C295.276 36.326 300.121 40.658 303.541 46.244C307.075 51.83 308.842 58.442 308.842 66.08H283.192C283.192 61.064 281.767 57.245 278.917 54.623C276.181 52.001 272.248 50.69 267.118 50.69C261.988 50.69 257.998 52.001 255.148 54.623C252.412 57.245 251.044 61.064 251.044 66.08V119.09C251.044 123.992 252.412 127.811 255.148 130.547C257.998 133.169 261.988 134.48 267.118 134.48C272.248 134.48 276.181 133.169 278.917 130.547C281.767 127.811 283.192 123.992 283.192 119.09V108.317H264.724V86.6H308.842V119.09C308.842 126.614 307.075 133.226 303.541 138.926C300.121 144.512 295.276 148.901 289.006 152.093C282.85 155.171 275.554 156.71 267.118 156.71Z" fill="white"/>
  <path d="M362.127 156.71C353.805 156.71 346.566 155.171 340.41 152.093C334.254 148.901 329.466 144.512 326.046 138.926C322.74 133.226 321.087 126.614 321.087 119.09V66.08C321.087 58.556 322.74 52.001 326.046 46.415C329.466 40.715 334.254 36.326 340.41 33.248C346.566 30.056 353.805 28.46 362.127 28.46C370.563 28.46 377.802 30.056 383.844 33.248C390 36.326 394.731 40.715 398.037 46.415C401.457 52.001 403.167 58.556 403.167 66.08V119.09C403.167 126.614 401.457 133.226 398.037 138.926C394.731 144.512 390 148.901 383.844 152.093C377.802 155.171 370.563 156.71 362.127 156.71ZM362.127 134.48C367.257 134.48 371.076 133.169 373.584 130.547C376.206 127.811 377.517 123.992 377.517 119.09V66.08C377.517 61.064 376.263 57.245 373.755 54.623C371.247 52.001 367.371 50.69 362.127 50.69C356.883 50.69 353.007 52.001 350.499 54.623C347.991 57.245 346.737 61.064 346.737 66.08V119.09C346.737 123.992 347.991 127.811 350.499 130.547C353.121 133.169 356.997 134.48 362.127 134.48Z" fill="white"/>
  <path d="M417.293 155V30.17H457.82C466.484 30.17 474.008 31.823 480.392 35.129C486.89 38.435 491.906 43.109 495.44 49.151C499.088 55.079 500.912 62.09 500.912 70.184V114.815C500.912 122.795 499.088 129.806 495.44 135.848C491.906 141.89 486.89 146.621 480.392 150.041C474.008 153.347 466.484 155 457.82 155H417.293ZM442.943 131.06H457.82C463.064 131.06 467.282 129.578 470.474 126.614C473.666 123.65 475.262 119.717 475.262 114.815V70.184C475.262 65.396 473.666 61.52 470.474 58.556C467.282 55.592 463.064 54.11 457.82 54.11H442.943V131.06Z" fill="white"/>
  <path d="M553.513 156.71C545.191 156.71 537.952 155.171 531.796 152.093C525.64 148.901 520.852 144.512 517.432 138.926C514.126 133.226 512.473 126.614 512.473 119.09V66.08C512.473 58.556 514.126 52.001 517.432 46.415C520.852 40.715 525.64 36.326 531.796 33.248C537.952 30.056 545.191 28.46 553.513 28.46C561.949 28.46 569.188 30.056 575.23 33.248C581.386 36.326 586.117 40.715 589.423 46.415C592.843 52.001 594.553 58.556 594.553 66.08V119.09C594.553 126.614 592.843 133.226 589.423 138.926C586.117 144.512 581.386 148.901 575.23 152.093C569.188 155.171 561.949 156.71 553.513 156.71ZM553.513 134.48C558.643 134.48 562.462 133.169 564.97 130.547C567.592 127.811 568.903 123.992 568.903 119.09V66.08C568.903 61.064 567.649 57.245 565.141 54.623C562.633 52.001 558.757 50.69 553.513 50.69C548.269 50.69 544.393 52.001 541.885 54.623C539.377 57.245 538.123 61.064 538.123 66.08V119.09C538.123 123.992 539.377 127.811 541.885 130.547C544.507 133.169 548.383 134.48 553.513 134.48Z" fill="white"/>
  <path d="M636.381 155V54.11H604.746V30.17H693.666V54.11H662.031V155H636.381Z" fill="white"/>
</svg>
