<svg width="137" height="47" viewBox="0 0 137 47" fill="none" xmlns="http://www.w3.org/2000/svg">
<path d="M67.3247 14.3674C64.7436 14.3674 62.7252 15.1801 61.2676 16.8052C59.8088 18.4312 59.0809 20.5415 59.0809 23.1395C59.0809 26.19 59.826 28.5024 61.3164 30.0775C62.8094 31.6525 64.7695 32.439 67.1997 32.439C68.5066 32.439 69.6665 32.3264 70.68 32.0999C71.6946 31.8744 72.369 31.643 72.7045 31.4088L72.8052 23.5433C72.8052 23.0862 71.5988 22.8785 70.2457 22.8553C68.8925 22.8344 67.3438 23.1166 67.3438 23.1166V25.7577H68.9012L68.8839 26.935C68.8839 27.3712 68.4515 27.5901 67.5892 27.5901C66.7258 27.5901 65.9633 27.2247 65.3017 26.4956C64.6387 25.7656 64.309 24.6983 64.309 23.2922C64.309 21.8832 64.6312 20.8446 65.2764 20.1741C65.9202 19.5044 66.7644 19.1684 67.8024 19.1684C68.2385 19.1684 68.6901 19.2387 69.1596 19.3823C69.6294 19.5246 69.943 19.6579 70.1031 19.7828C70.2618 19.9113 70.4128 19.9723 70.5555 19.9723C70.6975 19.9723 70.9276 19.8059 71.2457 19.47C71.5643 19.1349 71.8497 18.6272 72.1015 17.9501C72.3522 17.2695 72.4778 16.7478 72.4778 16.3778C72.4778 16.0107 72.4696 15.7577 72.4533 15.6241C72.1013 15.239 71.4517 14.9334 70.5041 14.7063C69.5584 14.4799 68.498 14.3675 67.325 14.3675L67.3247 14.3674ZM82.7459 14.3674C80.3746 14.3674 78.4387 15.1299 76.9391 16.6537C75.4399 18.1794 74.6904 20.42 74.6904 23.3791C74.6904 26.3366 75.4316 28.5863 76.9132 30.1279C78.3968 31.6684 80.3161 32.4386 82.6701 32.4386C85.0251 32.4386 86.9469 31.6981 88.4389 30.2167C89.931 28.7322 90.6764 26.4699 90.6764 23.4283C90.6764 20.3891 89.9478 18.1168 88.4885 16.6177C87.0318 15.1157 85.1168 14.3672 82.7459 14.3672V14.3674ZM116.083 14.3674C113.711 14.3674 111.776 15.1299 110.275 16.6537C108.776 18.1794 108.026 20.42 108.026 23.3791C108.026 26.3366 108.768 28.5863 110.251 30.1279C111.734 31.6684 113.652 32.4386 116.006 32.4386C118.36 32.4386 120.284 31.6981 121.775 30.2167C123.267 28.7322 124.013 26.4699 124.013 23.4283C124.013 20.3891 123.284 18.1168 121.826 16.6177C120.368 15.1157 118.454 14.3672 116.083 14.3672V14.3674ZM94.0268 14.5923C93.6906 14.5923 93.4187 14.7149 93.2096 14.9565C92.9992 15.2018 92.895 15.5326 92.895 15.9518V31.0319C92.895 31.8033 93.3232 32.1878 94.1773 32.1878H98.4745C103.736 32.1878 106.368 29.1051 106.368 22.9382C106.368 20.0554 105.677 17.9451 104.293 16.6048C102.912 15.2641 100.888 14.5922 98.2245 14.5922L94.0268 14.5923ZM125.387 14.5923C125.102 14.5923 124.901 14.9795 124.784 15.7503C124.734 16.1187 124.71 16.4967 124.71 16.8806C124.71 17.2666 124.734 17.6431 124.784 18.0108C124.901 18.7836 125.102 19.1682 125.387 19.1682H128.403V31.7874C128.403 32.1205 129.234 32.2894 130.892 32.2894C132.552 32.2894 133.381 32.1205 133.381 31.7874V19.1682H136.322C136.606 19.1682 136.807 18.7836 136.925 18.0108C136.975 17.6431 137 17.2666 137 16.8806C137 16.4967 136.975 16.1187 136.925 15.7503C136.807 14.9795 136.606 14.5923 136.322 14.5923H125.387ZM82.681 19.1936C83.486 19.1936 84.1606 19.5536 84.7045 20.2732C85.249 20.9936 85.5222 22.0253 85.5222 23.3655C85.5222 24.7069 85.2577 25.7372 84.7298 26.4571C84.202 27.1795 83.5145 27.5395 82.6685 27.5395C81.8221 27.5395 81.1399 27.1837 80.6204 26.4698C80.1001 25.758 79.8405 24.7367 79.8405 23.4024C79.8405 22.071 80.1136 21.0364 80.657 20.2992C81.2034 19.5628 81.8769 19.1934 82.6809 19.1934L82.681 19.1936ZM116.018 19.1936C116.823 19.1936 117.496 19.5536 118.041 20.2732C118.586 20.9936 118.858 22.0253 118.858 23.3655C118.858 24.7069 118.594 25.7372 118.066 26.4571C117.539 27.1795 116.851 27.5395 116.005 27.5395C115.158 27.5395 114.475 27.1837 113.957 26.4698C113.438 25.758 113.178 24.7367 113.178 23.4024C113.178 22.071 113.449 21.0364 113.993 20.2992C114.538 19.5628 115.213 19.1934 116.018 19.1934L116.018 19.1936ZM97.7197 19.3678H97.9711C99.0436 19.3678 99.8273 19.613 100.322 20.099C100.815 20.5837 101.062 21.6271 101.062 23.2283C101.062 24.8289 100.826 25.9715 100.347 26.6579C99.8689 27.3449 99.1702 27.6896 98.2476 27.6896C97.9969 27.6896 97.8456 27.6433 97.7958 27.5509C97.7454 27.458 97.7196 27.2368 97.7196 26.8857L97.7197 19.3678Z" fill="#EEEEEE"/>
<path d="M46.5975 31.892C46.5975 31.892 46.5252 31.4481 46.4829 31.4521L38.4274 32.2293C37.7864 32.2912 37.2886 32.8024 37.2437 33.4447L37.0224 36.6166L30.7904 37.0612L30.3665 34.1865C30.2721 33.5471 29.7138 33.0651 29.0674 33.0651H20.5653C19.9193 33.0651 19.3609 33.5471 19.2665 34.1865L18.8423 37.0612L12.6104 36.6166L12.3891 33.4447C12.3441 32.8022 11.8463 32.291 11.2053 32.2291L3.14594 31.4521C3.10431 31.4481 3.07381 31.8925 3.03218 31.8925L3.02127 33.6357L9.84688 34.7364L10.0704 37.9366C10.1156 38.5845 10.6384 39.1084 11.2867 39.1549L19.8695 39.7671C19.902 39.7694 19.934 39.7707 19.9661 39.7707C20.6111 39.7707 21.1685 39.2885 21.2629 38.6491L21.6991 35.6912H27.934L28.3701 38.6491C28.4643 39.2883 29.0224 39.7705 29.6683 39.7705C29.6999 39.7705 29.7315 39.7694 29.7625 39.7671L38.3465 39.1549C38.9946 39.1084 39.5175 38.5845 39.5627 37.9366L39.786 34.7364L46.6087 33.6308L46.5975 31.892Z" fill="white"/>
<path d="M19.7688 7.38118e-05C17.5015 0.504126 15.2585 1.20571 13.1557 2.26412C13.2038 4.12086 13.3238 5.89995 13.5672 7.70708C12.7505 8.23028 11.8923 8.67933 11.1295 9.29174C10.3545 9.88796 9.56286 10.4586 8.86118 11.1559C7.45924 10.2286 5.97561 9.35714 4.44705 8.58784C2.79935 10.3612 1.25854 12.2752 0 14.4169C0.946867 15.9487 1.93543 17.3844 3.00279 18.7468H3.03249V31.8916C3.05653 31.8918 3.08075 31.8929 3.10457 31.8951L11.1631 32.6719C11.5852 32.7126 11.916 33.0525 11.9453 33.4755L12.1939 37.0328L19.2233 37.5345L19.7074 34.2512C19.7702 33.8255 20.1355 33.5102 20.5661 33.5102H29.0681C29.4984 33.5102 29.8637 33.8255 29.9265 34.2512L30.4106 37.5345L37.4403 37.0328L37.6885 33.4755C37.7181 33.0525 38.0487 32.7128 38.4708 32.6719L46.526 31.8951C46.5499 31.8928 46.5738 31.8919 46.5978 31.8916V30.8427L46.6013 30.8415V18.7468H46.631C47.6985 17.3843 48.6864 15.9485 49.6338 14.4169C48.3757 12.275 46.8341 10.361 45.1864 8.58785C43.6583 9.35706 42.1739 10.2285 40.772 11.1559C40.0705 10.4586 39.2803 9.88798 38.5043 9.29175C37.7417 8.67927 36.8823 8.23023 36.0672 7.70709C36.3099 5.89995 36.43 4.12087 36.4784 2.26413C34.3754 1.20563 32.1326 0.504008 29.8641 0C28.9584 1.52221 28.1302 3.17035 27.4089 4.78187C26.5535 4.63894 25.6942 4.58595 24.8338 4.57571V4.57456C24.8278 4.57456 24.8222 4.57571 24.8171 4.57571C24.8117 4.57571 24.806 4.57456 24.8006 4.57456V4.57571C23.9386 4.58594 23.0799 4.63894 22.2243 4.78187C21.5035 3.1705 20.6759 1.52221 19.7688 0L19.7688 7.38118e-05ZM3.01872 33.6301C3.02206 34.4089 3.03198 35.262 3.03198 35.4319C3.03198 43.0848 12.7401 46.7631 24.8015 46.8055H24.8312C36.8926 46.7632 46.5977 43.0848 46.5977 35.4319C46.5977 35.259 46.6082 34.4093 46.6118 33.6301L39.3685 34.3288L39.1188 37.9051C39.0887 38.3361 38.7459 38.6792 38.3149 38.7101L29.731 39.3226C29.7101 39.3241 29.6891 39.3249 29.6684 39.3249C29.2418 39.3249 28.8739 39.0116 28.8109 38.5833L28.3187 35.2452H21.3147L20.8225 38.5833C20.7564 39.0325 20.3548 39.3557 19.9024 39.3226L11.3185 38.7101C10.8875 38.6792 10.5447 38.3361 10.5146 37.9051L10.2652 34.3288L3.01892 33.6301H3.01872Z" fill="#478CBF"/>
<path d="M13.3931 19.2288C10.7121 19.2288 8.53741 21.4013 8.53741 24.0827C8.53741 26.7659 10.712 28.9395 13.3931 28.9395C16.0754 28.9395 18.2495 26.7659 18.2495 24.0827C18.2495 21.4013 16.0754 19.2288 13.3931 19.2288ZM36.2403 19.2288C33.5575 19.2288 31.3836 21.4013 31.3836 24.0827C31.3836 26.7659 33.5575 28.9395 36.2403 28.9395C38.9211 28.9395 41.0954 26.7659 41.0954 24.0827C41.0954 21.4013 38.9211 19.2288 36.2403 19.2288ZM24.8157 22.0692C23.9523 22.0692 23.2526 22.7062 23.2526 23.4899V27.9605C23.2526 28.7449 23.9523 29.3812 24.8157 29.3812C25.6791 29.3812 26.3805 28.7449 26.3805 27.9605V23.4899C26.3805 22.7062 25.6791 22.0692 24.8157 22.0692Z" fill="white"/>
<path d="M13.8577 21.148C12.0774 21.148 10.6343 22.5919 10.6343 24.3717C10.6343 26.1514 12.0775 27.5938 13.8577 27.5938C15.6388 27.5938 17.0813 26.1514 17.0813 24.3717C17.0813 22.5919 15.6388 21.148 13.8577 21.148ZM35.7748 21.148C33.995 21.148 32.5529 22.5919 32.5529 24.3717C32.5529 26.1514 33.9951 27.5938 35.7748 27.5938C37.5564 27.5938 38.9981 26.1514 38.9981 24.3717C38.9981 22.5919 37.5563 21.148 35.7748 21.148Z" fill="#414042"/>
</svg>
