<svg xmlns="http://www.w3.org/2000/svg" fill="none" viewBox="0 0 127 118"><path fill="#fff" d="M50.7 0C45 1.3 39.3 3 34 5.7c.2 4.7.5 9.2 1 13.7-2 1.3-4.1 2.5-6 4-2 1.5-4 3-5.8 4.7-3.5-2.3-7.3-4.5-11.1-6.4A85 85 0 0 0 .9 36.3c2.5 4 5.1 7.9 7.6 11v33.1h.2l20.3 2c1 0 2 1 2 2l.6 9 17.7 1.2 1.3-8.3c.1-1 1-1.8 2.1-1.8h21.5c1 0 2 .8 2.1 1.8l1.2 8.3 17.8-1.2.6-9c0-1 .9-2 2-2l20.3-2h.1V47.3c3-3.6 5.6-7.6 7.7-11a85 85 0 0 0-11.2-14.6c-3.9 1.9-7.6 4-11.1 6.4-1.8-1.7-3.8-3.2-5.8-4.7-1.9-1.5-4-2.7-6.1-4 .6-4.5 1-9 1-13.7C87.5 3 81.8 1.3 76.2 0c-2.3 3.8-4.4 8-6.2 12-2.2-.3-4.4-.4-6.5-.5h-.1c-2.2 0-4.3.2-6.5.6C55.1 8 53 3.8 50.7 0Zm-16 48.5a12.2 12.2 0 1 1 0 24.5 12.2 12.2 0 0 1 0-24.5Zm57.5 0a12.2 12.2 0 1 1 0 24.5 12.2 12.2 0 0 1 0-24.5Zm-28.8 7.1c2.2 0 4 1.6 4 3.6v11.3c0 2-1.8 3.6-4 3.6-2.1 0-3.9-1.6-3.9-3.6V59.2c0-2 1.8-3.6 4-3.6Z"/><path fill="#fff" d="m100.1 86.5-.6 9c0 1.1-1 2-2 2l-21.7 1.6h-.1c-1.1 0-2-.7-2.2-1.8l-1.2-8.4H54.6l-1.2 8.4c-.2 1.1-1.2 2-2.4 1.8l-21.6-1.5c-1 0-2-1-2-2l-.6-9-18.3-1.8v4.5C8.5 108.6 33 118 63.4 118c30.5-.1 55-9.4 55-28.7v-4.5L100 86.5ZM44 61.4a8.1 8.1 0 1 1-16.3 0 8.1 8.1 0 0 1 16.2 0ZM83 61.4a8.1 8.1 0 1 0 16.2 0 8.1 8.1 0 0 0-16.3 0Z"/></svg>
